<svg xmlns="http://www.w3.org/2000/svg" viewBox="0 0 100 100">
  <defs>
    <linearGradient id="slideshowGradient" x1="0%" y1="0%" x2="100%" y2="100%">
      <stop offset="0%" style="stop-color:#8B5CF6;stop-opacity:1" />
      <stop offset="100%" style="stop-color:#EC4899;stop-opacity:1" />
    </linearGradient>
  </defs>

  <!-- Background Circle -->
  <circle cx="50" cy="50" r="45" fill="url(#slideshowGradient)" />

  <!-- Slideshow Frame -->
  <g transform="translate(50, 50)">
    <!-- Main slide frame -->
    <rect x="-22" y="-16" width="44" height="32" rx="3" fill="white" stroke="white" stroke-width="2"/>

    <!-- Image content representation -->
    <g opacity="0.7">
      <circle cx="-8" cy="-6" r="3" fill="url(#slideshowGradient)"/>
      <path d="M -22,6 L -10,-2 L 0,2 L 10,-4 L 22,4 L 22,16 L -22,16 Z" fill="url(#slideshowGradient)"/>
    </g>

    <!-- Slide indicators (pagination dots) -->
    <g transform="translate(0, 22)">
      <circle cx="-8" cy="0" r="2" fill="white" opacity="0.5"/>
      <circle cx="0" cy="0" r="2.5" fill="white"/>
      <circle cx="8" cy="0" r="2" fill="white" opacity="0.5"/>
    </g>

    <!-- Navigation arrows -->
    <!-- Left arrow -->
    <g transform="translate(-28, 0)">
      <circle cx="0" cy="0" r="5" fill="white" opacity="0.9"/>
      <path d="M 1,-3 L -2,0 L 1,3" fill="none" stroke="url(#slideshowGradient)" stroke-width="2" stroke-linecap="round" stroke-linejoin="round"/>
    </g>

    <!-- Right arrow -->
    <g transform="translate(28, 0)">
      <circle cx="0" cy="0" r="5" fill="white" opacity="0.9"/>
      <path d="M -1,-3 L 2,0 L -1,3" fill="none" stroke="url(#slideshowGradient)" stroke-width="2" stroke-linecap="round" stroke-linejoin="round"/>
    </g>

    <!-- Corner slide stack effect (showing multiple slides) -->
    <g opacity="0.4">
      <rect x="-20" y="-18" width="44" height="32" rx="3" fill="none" stroke="white" stroke-width="2"/>
      <rect x="-18" y="-20" width="44" height="32" rx="3" fill="none" stroke="white" stroke-width="2"/>
    </g>
  </g>
</svg>
